                                    <svg xmlns="http://www.w3.org/2000/svg" width="128" height="24" viewBox="0 0 128 24" fill="rgba(255, 255, 255, 1)" class="css-7qw58u-Icon"><path fill-rule="evenodd" clip-rule="evenodd" d="M44.3053 11C44.3053 15.9706 35.2827 20 24.1527 20C13.0227 20 4 15.9706 4 11V4.99999C4 4.45 4.35267 3.99995 5.00763 4C5.39476 4.00004 6.15918 4.42626 6.89358 4.83573C7.3061 5.06574 7.70914 5.29046 8.03053 5.43141C12.3991 7.34734 18.02 8.50001 24.1527 8.50001C30.2854 8.50001 35.9062 7.34733 40.2748 5.43141C40.7801 5.2098 41.2704 4.93476 41.7152 4.68518C42.3758 4.31454 42.9364 4.00003 43.2977 4.00003C43.9527 4.00003 44.3053 4.45003 44.3053 5.00003V11ZM116.104 16.4372L112.75 11.9954L116.015 7.5535H112.876L110.185 11.4446V4H107.494V16.4372H110.185V12.5106L113.055 16.4372H116.104ZM59.8107 8.4774C60.313 7.7667 61.1381 7.30475 62.4117 7.30475C64.4746 7.30475 65.8199 8.76168 65.8199 10.9826V16.4372H63.1292V11.2136C63.1292 10.3252 62.6987 9.75666 61.8377 9.75666C60.9408 9.75666 60.4385 10.3785 60.4385 11.4268V16.4372H57.7478V11.2136C57.7478 10.3252 57.3173 9.75666 56.4563 9.75666C55.5594 9.75666 55.0571 10.3785 55.0571 11.4268V16.4372H52.3664V7.5535H55.0571V8.3708C55.4697 7.76671 56.259 7.30475 57.4608 7.30475C58.5191 7.30475 59.3084 7.73117 59.8107 8.4774ZM71.4484 12.9903L73.1346 7.5535H76.0046L72.9372 16.1707C71.9327 18.9957 70.3362 20.1151 67.8249 19.9907V17.5033C69.0806 17.5033 69.6725 17.1124 70.0672 16.0286L66.4975 7.5535H69.4573L71.4484 12.9903ZM80.9509 16.686C82.7088 16.686 84.2336 15.7798 85.0049 14.394L82.655 13.0614C82.368 13.6833 81.7043 14.0564 80.915 14.0564C79.7491 14.0564 78.888 13.2213 78.888 11.9954C78.888 10.7694 79.7491 9.93434 80.915 9.93434C81.7043 9.93434 82.3501 10.3075 82.655 10.9293L85.0049 9.57899C84.2336 8.21089 82.6909 7.30475 80.9509 7.30475C78.2243 7.30475 76.1973 9.34801 76.1973 11.9954C76.1973 14.6427 78.2243 16.686 80.9509 16.686ZM92.4241 8.38857V7.5535H95.1148V16.4372H92.4241V15.6022C91.8321 16.2773 90.9532 16.686 89.7513 16.686C87.4014 16.686 85.4641 14.6427 85.4641 11.9954C85.4641 9.34801 87.4014 7.30475 89.7513 7.30475C90.9532 7.30475 91.8321 7.7134 92.4241 8.38857ZM88.1548 11.9954C88.1548 13.3279 89.0517 14.163 90.2895 14.163C91.5272 14.163 92.4241 13.3279 92.4241 11.9954C92.4241 10.6628 91.5272 9.82773 90.2895 9.82773C89.0517 9.82773 88.1548 10.6628 88.1548 11.9954ZM99.7795 9.1348V7.5535H97.0888V16.4372H99.7795V12.4218C99.7795 10.6628 101.358 10.2186 102.47 10.3963V7.37582C101.34 7.37582 100.138 7.94438 99.7795 9.1348ZM105.696 14.9981C105.696 15.922 104.924 16.686 103.991 16.686C103.059 16.686 102.287 15.922 102.287 14.9981C102.287 14.0742 103.059 13.3102 103.991 13.3102C104.924 13.3102 105.696 14.0742 105.696 14.9981ZM123.821 9.33024L120.43 13.9498H124V16.4372H116.825V14.6605L120.215 10.0409H117.004V7.5535H123.821V9.33024Z"></path></svg>
