 <svg xmlns="http://www.w3.org/2000/svg" width="24" height="24" viewBox="0 0 24 24" id="addFavourite" fill="#FFFFFF" fill-opacity="1" class="css-7qw58u-Icon">
                                <g filter="url(#filter0_dd)">
                                    <path fill-rule="evenodd" clip-rule="evenodd" d="M9.97175 4.00645C11.4324 4.07859 12.8754 4.75551 14.0002 6.16537C15.125 4.75551 16.568 4.07859 18.0286 4.00645C19.799 3.919 21.4978 4.72865 22.5155 5.98279C23.7425 7.29125 24.5295 9.63731 23.5774 12.4757C22.626 15.3117 19.9733 18.5601 14.4885 21.8593C14.4529 21.8817 14.4159 21.9015 14.3777 21.9187C14.1323 22.03 13.8567 22.0242 13.6226 21.9187C13.5845 21.9015 13.5475 21.8817 13.5119 21.8593C8.02709 18.5601 5.37439 15.3117 4.42301 12.4757C3.47083 9.63731 4.25782 7.29125 5.48489 5.98279C6.50253 4.72865 8.20137 3.919 9.97175 4.00645ZM9.88114 5.8042C8.69567 5.74564 7.54433 6.30526 6.88675 7.12949C6.87015 7.1503 6.85263 7.17036 6.83425 7.18964C6.06981 7.99088 5.39147 9.65158 6.14855 11.9084C6.88953 14.1172 9.03743 16.9679 14.0002 20.0427C18.9629 16.9679 21.1108 14.1172 21.8518 11.9084C22.6089 9.65159 21.9306 7.99088 21.1661 7.18964C21.1477 7.17036 21.1302 7.1503 21.1136 7.12949C20.456 6.30526 19.3047 5.74564 18.1192 5.8042C17.1418 5.85247 16.0166 6.32714 15.1375 7.59128C14.8743 7.96983 14.4611 8.23337 14 8.23336C13.539 8.23335 13.1258 7.96982 12.8626 7.59127C11.9836 6.32713 10.8585 5.85247 9.88114 5.8042Z">
                                    </path>
                                </g>
                                <defs>
                                    <filter id="filter0_dd" x="-2" y="-3" width="32" height="32" filterUnits="userSpaceOnUse" color-interpolation-filters="sRGB">
                                        <feFlood flood-opacity="0" result="BackgroundImageFix">
                                        </feFlood>
                                        <feColorMatrix in="SourceAlpha" type="matrix" values="0 0 0 0 0 0 0 0 0 0 0 0 0 0 0 0 0 0 127 0">
                                        </feColorMatrix>
                                        <feOffset>
                                        </feOffset>
                                        <feGaussianBlur stdDeviation="2">
                                        </feGaussianBlur>
                                        <feColorMatrix type="matrix" values="0 0 0 0 0 0 0 0 0 0 0 0 0 0 0 0 0 0 0.25 0">
                                        </feColorMatrix>
                                        <feBlend mode="normal" in2="BackgroundImageFix" result="effect1_dropShadow">
                                        </feBlend>
                                        <feColorMatrix in="SourceAlpha" type="matrix" values="0 0 0 0 0 0 0 0 0 0 0 0 0 0 0 0 0 0 127 0">
                                        </feColorMatrix>
                                        <feOffset>
                                        </feOffset>
                                        <feGaussianBlur stdDeviation="0.5">
                                        </feGaussianBlur>
                                        <feColorMatrix type="matrix" values="0 0 0 0 0 0 0 0 0 0 0 0 0 0 0 0 0 0 0.25 0">
                                        </feColorMatrix>
                                        <feBlend mode="normal" in2="effect1_dropShadow" result="effect2_dropShadow">
                                        </feBlend>
                                        <feBlend mode="normal" in="SourceGraphic" in2="effect2_dropShadow" result="shape">
                                        </feBlend>
                                    </filter>
                                </defs>
                            </svg>